<svg xmlns="http://www.w3.org/2000/svg" viewBox="-234.2 992 603.5 117" enable-background="new -234.2 992 603.5 117"><path fill="#81B441" d="M-153.4 1004.2c-2.9-1.7-11.5-.8-21.9 2.5-17.9 12.3-33.2 30.5-34.2 59.5-.4.8-1.9 0-2.1-.4-5-9.2-6.7-19-2.5-33.2.8-1.3-1.9-2.9-2.1-2.1-.8.8-4.6 5-7.1 9.2-12.3 21.3-4.2 48.2 17.1 60.3 21.5 11.9 48.2 4.2 60.3-17.1 13.2-25.2.2-74.5-7.5-78.7z"/><path fill="#fff" d="M-76.8 1015.5c-25.3 0-44 19-44 44.9 0 26.1 18.2 44.7 44.7 44.7 13.4 0 23.8-4.2 31.9-12.5 2.5-2.5 2.5-5.2 2.5-6.3 0-4.2-2.9-7.5-7.5-7.5-2.1 0-4.2.8-5.8 2.5-5 4.6-10.9 9-21.3 9-14.6 0-26.1-10.9-26.9-24.6h57.4c6.3 0 9.2-2.9 9.2-9 0-1.9 0-2.9-.4-5.4-3.1-22.2-17.7-35.8-39.8-35.8zm0 14.2c13.8 0 22.7 9 23.2 23.2h-49c.9-13.4 12.2-23.2 25.8-23.2zm95.1-14.2c-11.5 0-23.2 6.7-27.5 16.1v-5.4c0-9-6.7-9.2-8.3-9.2-4.2 0-8.6 2.5-8.6 9.2v68.9c0 9.2 7.5 9.6 8.6 9.6 1.7 0 8.6-.4 8.6-9.6v-36.9c0-16.1 9-27.1 21.9-27.1 12.5 0 18.6 8.3 18.6 25.3v38.6c0 9.2 7.5 9.6 8.6 9.6 1.7 0 8.6-.4 8.6-9.6v-44.7c1.3-16.9-6.9-34.8-30.5-34.8zm110.7 1.2c-4.2 0-7.1 2.1-8.6 7.1l-23.8 59.9-23.8-59.9c-1.9-5-5-7.1-9-7.1-5 0-8.6 3.8-8.6 8.6 0 1.3 0 2.5 1.3 5l27.5 64.7c3.3 7.9 8.6 9.2 12.5 9.2 4.2 0 9.2-1.7 12.5-9.2l27.5-65.1c1.3-2.1 1.3-4.2 1.3-5-.3-4.8-4-8.2-8.8-8.2zm50.9-1.2c-11.3 0-21.5 2.9-29.4 9-2.5 1.9-3.8 4.2-3.8 7.1 0 3.8 2.9 7.1 6.7 7.1 1.7 0 3.3-.8 5.2-1.9 6.7-4.6 12.9-6.3 19.6-6.3 12.9 0 20.5 6.7 20.5 17.9v1.9c-29 0-58.4 3.3-58.4 28.6 0 18.2 15.7 26.5 30.9 26.5 12.3 0 21.9-5 28.2-14.2v4.2c0 6.7 4.6 9 8.3 9 .8 0 7.9-.4 7.9-9v-46.1c-.5-21.1-13.4-33.8-35.7-33.8zm15 47.4h3.8v4.2c0 14.8-9.2 24.2-23.8 24.2-4.2 0-16.7-.8-16.7-12.5-.2-14.5 20.8-15.9 36.7-15.9zm65.5-30.5c7.9 0 8.3-5.8 8.3-7.1 0-3.3-2.1-7.5-8.3-7.5h-15.7v-15.7c0-7.1-4.6-9.6-8.6-9.6-1.7 0-8.6.4-8.6 9.6v75.5c0 17.5 8.6 26.9 24.8 26.9 4.2 0 8.3-.8 11.3-1.9 2.9-1.7 5-4.2 5-7.1 0-4.2-2.9-7.1-7.1-7.1-.8 0-1.9.4-2.9.4-1.7.4-2.5.4-3.8.4-6.7 0-9.6-4.6-9.6-13.8v-43.2h15.2zm57.8-16.9c-26.5 0-45.3 18.6-45.3 44.7 0 12.5 4.6 23.8 12.9 32.3 8.3 8.3 19.6 12.5 32.3 12.5 26.1 0 45.7-19.4 45.7-44.9.1-25.4-18.6-44.6-45.6-44.6zm0 74.9c-18.2 0-27.5-15.2-27.5-30.3 0-20.5 14.2-29.8 27.5-29.8 13.4 0 27.8 9.4 27.8 29.8.2 20.9-14.2 30.3-27.8 30.3z"/></svg>